<?xml version="1.0" encoding="utf-8"?>
<!-- Generator: Adobe Illustrator 18.1.1, SVG Export Plug-In . SVG Version: 6.00 Build 0)  -->
<svg version="1.1" id="Ebene_1" xmlns="http://www.w3.org/2000/svg" xmlns:xlink="http://www.w3.org/1999/xlink" x="0px" y="0px"
	 viewBox="0 0 64 64" enable-background="new 0 0 64 64" xml:space="preserve">
<g>
	<ellipse fill="none" stroke="#333333" stroke-width="2.5" stroke-miterlimit="10" cx="32" cy="38.7" rx="16.4" ry="16.4"/>
	<path fill="none" stroke="#333333" stroke-width="2.5" stroke-miterlimit="10" d="M35.5,45.9l0.4-5.8c1.6-1.2,2.7-3,2.7-5.2
		c0-3.6-2.8-6.4-6.3-6.4c-3.5,0-6.3,2.8-6.3,6.4c0,2.1,1.1,4.1,2.7,5.2l0.4,5.9c0.1,1.7,1.5,2.8,3.1,2.8h0.1
		C33.9,49,35.3,47.6,35.5,45.9z"/>
	<path fill="none" stroke="#333333" stroke-width="2.5" stroke-miterlimit="10" d="M20.9,26.3v-7.5c0-5.5,5.2-10,11.3-10l0,0
		c6.1,0,11.3,4.4,11.3,10v7.5"/>
</g>
</svg>
