<?xml version="1.0" encoding="utf-8"?>
<!-- Generator: Adobe Illustrator 18.1.1, SVG Export Plug-In . SVG Version: 6.00 Build 0)  -->
<svg version="1.1" id="Ebene_1" xmlns="http://www.w3.org/2000/svg" xmlns:xlink="http://www.w3.org/1999/xlink" x="0px" y="0px"
	 viewBox="0 0 64 64" enable-background="new 0 0 64 64" xml:space="preserve">
<g>
	<path fill="none" stroke="#333333" stroke-width="2.5" stroke-miterlimit="10" d="M28.9,20.9H6.7c-0.5,0-0.9-0.4-0.9-0.9v-9.8
		c0-0.5,0.4-0.9,0.9-0.9h22.2c0.5,0,0.9,0.4,0.9,0.9V20C29.8,20.4,29.4,20.9,28.9,20.9z"/>
	<path fill="none" stroke="#333333" stroke-width="2.5" stroke-miterlimit="10" d="M28.9,37.8H6.7c-0.5,0-0.9-0.4-0.9-0.9v-9.8
		c0-0.5,0.4-0.9,0.9-0.9h22.2c0.5,0,0.9,0.4,0.9,0.9v9.8C29.8,37.4,29.4,37.8,28.9,37.8z"/>
	<path fill="none" stroke="#333333" stroke-width="2.5" stroke-miterlimit="10" d="M57.3,20.9H35.1c-0.5,0-0.9-0.4-0.9-0.9v-9.8
		c0-0.5,0.4-0.9,0.9-0.9h22.2c0.5,0,0.9,0.4,0.9,0.9V20C58.2,20.4,57.9,20.9,57.3,20.9z"/>
	<path fill="none" stroke="#333333" stroke-width="2.5" stroke-miterlimit="10" d="M57.3,37.8H35.1c-0.5,0-0.9-0.4-0.9-0.9v-9.8
		c0-0.5,0.4-0.9,0.9-0.9h22.2c0.5,0,0.9,0.4,0.9,0.9v9.8C58.2,37.4,57.9,37.8,57.3,37.8z"/>
	<path fill="none" stroke="#333333" stroke-width="2.5" stroke-miterlimit="10" d="M28.9,54.7H6.7c-0.5,0-0.9-0.4-0.9-0.9V44
		c0-0.5,0.4-0.9,0.9-0.9h22.2c0.5,0,0.9,0.4,0.9,0.9v9.8C29.8,54.3,29.4,54.7,28.9,54.7z"/>
	<path fill="none" stroke="#333333" stroke-width="2.5" stroke-miterlimit="10" d="M57.3,54.7H35.1c-0.5,0-0.9-0.4-0.9-0.9V44
		c0-0.5,0.4-0.9,0.9-0.9h22.2c0.5,0,0.9,0.4,0.9,0.9v9.8C58.2,54.3,57.9,54.7,57.3,54.7z"/>
</g>
</svg>
