<?xml version="1.0" encoding="utf-8"?>
<!-- Generator: Adobe Illustrator 18.1.1, SVG Export Plug-In . SVG Version: 6.00 Build 0)  -->
<svg version="1.1" id="Ebene_1" xmlns="http://www.w3.org/2000/svg" xmlns:xlink="http://www.w3.org/1999/xlink" x="0px" y="0px"
	 viewBox="0 0 72 72" enable-background="new 0 0 72 72" xml:space="preserve">
<g>
	
		<radialGradient id="SVGID_1_" cx="61.4183" cy="173.1231" r="13.9469" gradientTransform="matrix(0.9699 0.2435 -0.2803 1.1161 37.0706 -216.0553)" gradientUnits="userSpaceOnUse">
		<stop  offset="0" style="stop-color:#FFFFFF"/>
		<stop  offset="0.2528" style="stop-color:#FFFFFF"/>
		<stop  offset="1" style="stop-color:#AFAFB2"/>
	</radialGradient>
	<path fill="url(#SVGID_1_)" d="M45.3,3.4c-3.3-0.8-6.4,0.1-6.9,2.2c-0.5,2,1.7,4.3,5,5.2c3.3,0.8,6.4-0.1,6.9-2.2
		C50.8,6.5,48.6,4.2,45.3,3.4z M43.8,9.1c-2.9-0.7-4.3-2.5-4.1-3.3C40,5.1,42,4.2,44.9,4.9c2.9,0.7,4.3,2.5,4.1,3.3
		C48.8,8.9,46.7,9.9,43.8,9.1z"/>
	
		<radialGradient id="SVGID_2_" cx="60.3574" cy="218.0402" r="10.7009" gradientTransform="matrix(0.9699 0.2435 -0.2264 0.9018 36.5511 -211.1328)" gradientUnits="userSpaceOnUse">
		<stop  offset="0" style="stop-color:#FFFFFF"/>
		<stop  offset="0.2528" style="stop-color:#FFFFFF"/>
		<stop  offset="1" style="stop-color:#AFAFB2"/>
	</radialGradient>
	<polygon fill="url(#SVGID_2_)" points="46.9,12.9 38.7,10.9 39.9,6.3 48,8.3 	"/>
	
		<radialGradient id="SVGID_3_" cx="57.3392" cy="149.6659" r="142.2204" gradientTransform="matrix(0.9699 0.2435 -0.2435 0.9699 37.2683 -213.0565)" gradientUnits="userSpaceOnUse">
		<stop  offset="0" style="stop-color:#FFFFFF"/>
		<stop  offset="0.2528" style="stop-color:#FFFFFF"/>
		<stop  offset="1" style="stop-color:#ABAAAD"/>
	</radialGradient>
	<circle fill="url(#SVGID_3_)" cx="36" cy="38.9" r="30"/>
	
		<radialGradient id="SVGID_4_" cx="53.8453" cy="187.0766" r="168.037" gradientTransform="matrix(0.9699 0.2435 -0.2435 0.9699 37.0508 -213.1112)" gradientUnits="userSpaceOnUse">
		<stop  offset="0" style="stop-color:#FFFFFF"/>
		<stop  offset="0.2528" style="stop-color:#FFFFFF"/>
		<stop  offset="1" style="stop-color:#AFAFB2"/>
	</radialGradient>
	<path fill="url(#SVGID_4_)" d="M28.8,66.4C13.5,62.5,4.2,47,8,31.8c3.8-15.2,19.4-24.5,34.7-20.6C57.9,15,67.3,30.5,63.4,45.7
		C59.6,60.9,44.1,70.2,28.8,66.4L28.8,66.4z"/>
	
		<radialGradient id="SVGID_5_" cx="67.2436" cy="306.2349" r="136.3519" gradientTransform="matrix(0.9699 0.2435 -0.2435 0.9699 37.0508 -213.1117)" gradientUnits="userSpaceOnUse">
		<stop  offset="0" style="stop-color:#FFFFFF"/>
		<stop  offset="0.2528" style="stop-color:#FFFFFF"/>
		<stop  offset="1" style="stop-color:#AFAFB2"/>
	</radialGradient>
	<path fill="url(#SVGID_5_)" d="M7.3,35.5c-1.6,13.9,7.4,27.3,21.5,30.8c15.3,3.8,30.8-5.4,34.7-20.7c0.8-3.3,1-6.6,0.7-9.8
		c-8.3,2.2-17.8,3.5-27.8,3.5C25.8,39.3,15.9,37.9,7.3,35.5z"/>
	
		<radialGradient id="SVGID_6_" cx="56.8689" cy="165.2307" r="143.2246" gradientTransform="matrix(0.9699 0.2435 -0.2435 0.9699 37.0508 -213.1112)" gradientUnits="userSpaceOnUse">
		<stop  offset="0" style="stop-color:#FFFFFF"/>
		<stop  offset="0.2528" style="stop-color:#FFFFFF"/>
		<stop  offset="1" style="stop-color:#AFAFB2"/>
	</radialGradient>
	<path fill="url(#SVGID_6_)" d="M29.8,62.5C16.7,59.2,8.8,46,12,32.9c3.3-13,16.6-21,29.6-17.7c13,3.3,21,16.6,17.7,29.6
		C56.1,57.8,42.8,65.8,29.8,62.5L29.8,62.5z"/>
	
		<radialGradient id="SVGID_7_" cx="77.7831" cy="196.6073" r="2.7886" gradientTransform="matrix(0.9699 0.2435 -0.2435 0.9699 37.0508 -213.1112)" gradientUnits="userSpaceOnUse">
		<stop  offset="0" style="stop-color:#FFFFFF"/>
		<stop  offset="0.2528" style="stop-color:#FFFFFF"/>
		<stop  offset="1" style="stop-color:#AFAFB2"/>
	</radialGradient>
	<path fill="url(#SVGID_7_)" d="M30.1,61.2c-12.3-3.1-19.8-15.6-16.7-27.9C16.5,20.9,29,13.4,41.3,16.5C53.6,19.6,61.1,32.2,58,44.5
		C54.9,56.8,42.4,64.3,30.1,61.2L30.1,61.2z"/>
	<radialGradient id="SVGID_8_" cx="59.6267" cy="-113.4529" r="246.8583" gradientUnits="userSpaceOnUse">
		<stop  offset="0" style="stop-color:#FFFFFF"/>
		<stop  offset="7.006906e-02" style="stop-color:#D5E7FD"/>
		<stop  offset="0.1912" style="stop-color:#93C2FA"/>
		<stop  offset="0.2791" style="stop-color:#69AAF8"/>
		<stop  offset="0.3242" style="stop-color:#59A1F7"/>
		<stop  offset="0.4386" style="stop-color:#468FE2"/>
		<stop  offset="0.5824" style="stop-color:#317CCB"/>
		<stop  offset="0.8463" style="stop-color:#09478D"/>
		<stop  offset="0.9011" style="stop-color:#003C80"/>
		<stop  offset="0.9315" style="stop-color:#003B7E"/>
		<stop  offset="0.9482" style="stop-color:#003776"/>
		<stop  offset="0.9615" style="stop-color:#003168"/>
		<stop  offset="0.973" style="stop-color:#002854"/>
		<stop  offset="0.9834" style="stop-color:#001C3B"/>
		<stop  offset="0.9928" style="stop-color:#000D1D"/>
		<stop  offset="1" style="stop-color:#000000"/>
	</radialGradient>
	<path fill="url(#SVGID_8_)" d="M30.5,59.8C19.1,57,12.1,45.2,15,33.7C17.9,22.1,29.6,15,41,17.9c11.4,2.9,18.4,14.6,15.5,26.2
		C53.6,55.6,41.9,62.7,30.5,59.8L30.5,59.8z"/>
	
		<radialGradient id="SVGID_9_" cx="60.6246" cy="265.9514" r="45.9987" gradientTransform="matrix(0.9699 0.2435 -0.2435 0.9699 37.0508 -213.1112)" gradientUnits="userSpaceOnUse">
		<stop  offset="0" style="stop-color:#FFFFFF"/>
		<stop  offset="7.006906e-02" style="stop-color:#D5E7FD"/>
		<stop  offset="0.1912" style="stop-color:#93C2FA"/>
		<stop  offset="0.2791" style="stop-color:#69AAF8"/>
		<stop  offset="0.3242" style="stop-color:#59A1F7"/>
		<stop  offset="0.4386" style="stop-color:#468FE2"/>
		<stop  offset="0.5824" style="stop-color:#317CCB"/>
		<stop  offset="0.8463" style="stop-color:#09478D"/>
		<stop  offset="0.9011" style="stop-color:#003C80"/>
		<stop  offset="0.9315" style="stop-color:#003B7E"/>
		<stop  offset="0.9482" style="stop-color:#003776"/>
		<stop  offset="0.9615" style="stop-color:#003168"/>
		<stop  offset="0.973" style="stop-color:#002854"/>
		<stop  offset="0.9834" style="stop-color:#001C3B"/>
		<stop  offset="0.9928" style="stop-color:#000D1D"/>
		<stop  offset="1" style="stop-color:#000000"/>
	</radialGradient>
	<path fill="url(#SVGID_9_)" d="M30.9,57.9C20.4,55.2,14,44.6,16.7,34.1C19.3,23.6,30,17.2,40.5,19.8C51,22.5,57.4,33.1,54.7,43.6
		C52.1,54.1,41.4,60.5,30.9,57.9L30.9,57.9z"/>
	<radialGradient id="SVGID_10_" cx="46.3113" cy="-1.8127" r="113.2078" gradientUnits="userSpaceOnUse">
		<stop  offset="0" style="stop-color:#FFFFFF"/>
		<stop  offset="7.006906e-02" style="stop-color:#D5E7FD"/>
		<stop  offset="0.1912" style="stop-color:#93C2FA"/>
		<stop  offset="0.2791" style="stop-color:#69AAF8"/>
		<stop  offset="0.3242" style="stop-color:#59A1F7"/>
		<stop  offset="0.4386" style="stop-color:#468FE2"/>
		<stop  offset="0.5824" style="stop-color:#317CCB"/>
		<stop  offset="0.8463" style="stop-color:#09478D"/>
		<stop  offset="0.9011" style="stop-color:#003C80"/>
		<stop  offset="0.9315" style="stop-color:#003B7E"/>
		<stop  offset="0.9482" style="stop-color:#003776"/>
		<stop  offset="0.9615" style="stop-color:#003168"/>
		<stop  offset="0.973" style="stop-color:#002854"/>
		<stop  offset="0.9834" style="stop-color:#001C3B"/>
		<stop  offset="0.9928" style="stop-color:#000D1D"/>
		<stop  offset="1" style="stop-color:#000000"/>
	</radialGradient>
	<path fill="url(#SVGID_10_)" d="M40.5,19.8c-8.6-2.2-17.4,1.8-21.7,9.1c5.1,2.7,10.9,5,17.4,6.6c6.7,1.7,13.2,2.5,19.1,2.4
		C54.9,29.5,49,22,40.5,19.8z"/>
	<radialGradient id="SVGID_11_" cx="61.2485" cy="-67.4626" r="198.1528" gradientUnits="userSpaceOnUse">
		<stop  offset="0" style="stop-color:#FFFFFF"/>
		<stop  offset="3.312837e-02" style="stop-color:#D1EAFC"/>
		<stop  offset="6.700754e-02" style="stop-color:#A9D8FA"/>
		<stop  offset="0.1004" style="stop-color:#89C9F8"/>
		<stop  offset="0.1327" style="stop-color:#73BFF7"/>
		<stop  offset="0.1635" style="stop-color:#66B9F6"/>
		<stop  offset="0.191" style="stop-color:#61B7F6"/>
		<stop  offset="0.3869" style="stop-color:#2D93F1"/>
		<stop  offset="0.4441" style="stop-color:#278BF0"/>
		<stop  offset="0.5306" style="stop-color:#1877ED"/>
		<stop  offset="0.6231" style="stop-color:#0259E9"/>
		<stop  offset="0.7313" style="stop-color:#0A46B4"/>
		<stop  offset="0.8794" style="stop-color:#142E6F"/>
		<stop  offset="0.9328" style="stop-color:#0C1B40"/>
		<stop  offset="1" style="stop-color:#000000"/>
	</radialGradient>
	<circle opacity="0.6" fill="url(#SVGID_11_)" cx="52.2" cy="43.2" r="4.7"/>
	<radialGradient id="SVGID_12_" cx="61.2544" cy="-67.4618" r="198.1542" gradientUnits="userSpaceOnUse">
		<stop  offset="0" style="stop-color:#FFFFFF"/>
		<stop  offset="3.312837e-02" style="stop-color:#D1EAFC"/>
		<stop  offset="6.700754e-02" style="stop-color:#A9D8FA"/>
		<stop  offset="0.1004" style="stop-color:#89C9F8"/>
		<stop  offset="0.1327" style="stop-color:#73BFF7"/>
		<stop  offset="0.1635" style="stop-color:#66B9F6"/>
		<stop  offset="0.191" style="stop-color:#61B7F6"/>
		<stop  offset="0.3869" style="stop-color:#2D93F1"/>
		<stop  offset="0.4441" style="stop-color:#278BF0"/>
		<stop  offset="0.5306" style="stop-color:#1877ED"/>
		<stop  offset="0.6231" style="stop-color:#0259E9"/>
		<stop  offset="0.7313" style="stop-color:#0A46B4"/>
		<stop  offset="0.8794" style="stop-color:#142E6F"/>
		<stop  offset="0.9328" style="stop-color:#0C1B40"/>
		<stop  offset="1" style="stop-color:#000000"/>
	</radialGradient>
	<circle opacity="0.6" fill="url(#SVGID_12_)" cx="19.7" cy="35" r="4.7"/>
	<radialGradient id="SVGID_13_" cx="61.2516" cy="-67.451" r="198.1291" gradientUnits="userSpaceOnUse">
		<stop  offset="0" style="stop-color:#FFFFFF"/>
		<stop  offset="3.312837e-02" style="stop-color:#D1EAFC"/>
		<stop  offset="6.700754e-02" style="stop-color:#A9D8FA"/>
		<stop  offset="0.1004" style="stop-color:#89C9F8"/>
		<stop  offset="0.1327" style="stop-color:#73BFF7"/>
		<stop  offset="0.1635" style="stop-color:#66B9F6"/>
		<stop  offset="0.191" style="stop-color:#61B7F6"/>
		<stop  offset="0.3869" style="stop-color:#2D93F1"/>
		<stop  offset="0.4441" style="stop-color:#278BF0"/>
		<stop  offset="0.5306" style="stop-color:#1877ED"/>
		<stop  offset="0.6231" style="stop-color:#0259E9"/>
		<stop  offset="0.7313" style="stop-color:#0A46B4"/>
		<stop  offset="0.8794" style="stop-color:#142E6F"/>
		<stop  offset="0.9328" style="stop-color:#0C1B40"/>
		<stop  offset="1" style="stop-color:#000000"/>
	</radialGradient>
	<circle opacity="0.6" fill="url(#SVGID_13_)" cx="40" cy="22.9" r="4.7"/>
	<radialGradient id="SVGID_14_" cx="61.2511" cy="-67.4634" r="198.1539" gradientUnits="userSpaceOnUse">
		<stop  offset="0" style="stop-color:#FFFFFF"/>
		<stop  offset="3.312837e-02" style="stop-color:#D1EAFC"/>
		<stop  offset="6.700754e-02" style="stop-color:#A9D8FA"/>
		<stop  offset="0.1004" style="stop-color:#89C9F8"/>
		<stop  offset="0.1327" style="stop-color:#73BFF7"/>
		<stop  offset="0.1635" style="stop-color:#66B9F6"/>
		<stop  offset="0.191" style="stop-color:#61B7F6"/>
		<stop  offset="0.3869" style="stop-color:#2D93F1"/>
		<stop  offset="0.4441" style="stop-color:#278BF0"/>
		<stop  offset="0.5306" style="stop-color:#1877ED"/>
		<stop  offset="0.6231" style="stop-color:#0259E9"/>
		<stop  offset="0.7313" style="stop-color:#0A46B4"/>
		<stop  offset="0.8794" style="stop-color:#142E6F"/>
		<stop  offset="0.9328" style="stop-color:#0C1B40"/>
		<stop  offset="1" style="stop-color:#000000"/>
	</radialGradient>
	<circle opacity="0.6" fill="url(#SVGID_14_)" cx="32.2" cy="54" r="4.7"/>
	<path fill="#FFFFFF" d="M38.3,33.2l0.3-5.3l-2.3,4.7c0.3,0,0.6,0.1,0.9,0.1C37.6,32.9,38,33,38.3,33.2z"/>
	<path fill="#FFFFFF" d="M33.1,44.6l-0.3,5.1l2.3-4.6c-0.3,0-0.6-0.1-0.9-0.1C33.8,44.8,33.5,44.7,33.1,44.6z"/>
	<path fill="#FFFFFF" d="M37.2,32.8c-3.4-0.8-6.8,1.2-7.6,4.6c-0.8,3.4,1.2,6.8,4.6,7.6c3.4,0.8,6.8-1.2,7.6-4.6
		C42.6,37,40.6,33.6,37.2,32.8z M34.5,43.6c-2.6-0.7-4.2-3.3-3.5-5.9c0.7-2.6,3.3-4.2,5.9-3.5c2.6,0.7,4.2,3.3,3.5,5.9
		C39.8,42.6,37.1,44.2,34.5,43.6z"/>
	<path fill="#FFFFFF" d="M30,36.2l-5.2-0.3l4.7,2.3c0-0.3,0.1-0.6,0.1-0.8C29.7,36.9,29.9,36.6,30,36.2z"/>
	<path fill="#FFFFFF" d="M41.4,41.4l5.2,0.3l-4.7-2.3c0,0.3-0.1,0.7-0.1,1C41.7,40.7,41.6,41.1,41.4,41.4z"/>
	<path fill="#FFFFFF" d="M30.1,41.5l-2.2,2l2.8-1C30.4,42.2,30.2,41.9,30.1,41.5z"/>
	<path fill="#FFFFFF" d="M41.4,36.3l2.1-1.8l-2.6,0.9C41.1,35.6,41.2,35.9,41.4,36.3z"/>
	
		<linearGradient id="SVGID_15_" gradientUnits="userSpaceOnUse" x1="122.4101" y1="-380.9822" x2="62.8408" y2="-183.4114" gradientTransform="matrix(0.9432 -0.3323 0.3323 0.9432 38.3378 281.5157)">
		<stop  offset="0" style="stop-color:#B5B7B9"/>
		<stop  offset="3.249786e-02" style="stop-color:#B2B4B6"/>
		<stop  offset="5.691342e-02" style="stop-color:#A9AAAD"/>
		<stop  offset="7.869470e-02" style="stop-color:#999A9D"/>
		<stop  offset="9.892479e-02" style="stop-color:#838387"/>
		<stop  offset="0.1179" style="stop-color:#66666A"/>
		<stop  offset="0.1236" style="stop-color:#5C5C60"/>
		<stop  offset="0.1308" style="stop-color:#737376"/>
		<stop  offset="0.1459" style="stop-color:#9E9EA0"/>
		<stop  offset="0.1613" style="stop-color:#C1C1C2"/>
		<stop  offset="0.1768" style="stop-color:#DCDCDD"/>
		<stop  offset="0.1925" style="stop-color:#F0F0F0"/>
		<stop  offset="0.2083" style="stop-color:#FBFBFB"/>
		<stop  offset="0.2247" style="stop-color:#FFFFFF"/>
		<stop  offset="0.2345" style="stop-color:#FCFCFC"/>
		<stop  offset="0.3107" style="stop-color:#EAEAEB"/>
		<stop  offset="0.3901" style="stop-color:#DFE0E0"/>
		<stop  offset="0.4775" style="stop-color:#DBDCDD"/>
		<stop  offset="0.5674" style="stop-color:#9B9C9E"/>
		<stop  offset="0.7191" style="stop-color:#FFFFFF"/>
		<stop  offset="0.7765" style="stop-color:#FDFDFD"/>
		<stop  offset="0.8028" style="stop-color:#F5F5F5"/>
		<stop  offset="0.8227" style="stop-color:#E9E9E9"/>
		<stop  offset="0.8258" style="stop-color:#E6E6E6"/>
		<stop  offset="0.927" style="stop-color:#797A7D"/>
		<stop  offset="1" style="stop-color:#B9BBBD"/>
	</linearGradient>
	<path fill="url(#SVGID_15_)" d="M28.8,19.5l0,0.3l6.4,18.1c1.2-0.5,2.5-0.8,3.9-0.9L28.8,19.5z"/>
	
		<radialGradient id="SVGID_16_" cx="61.3993" cy="221.1795" r="57.1997" gradientTransform="matrix(0.9699 0.2435 -0.2435 0.9699 37.0508 -213.1112)" gradientUnits="userSpaceOnUse">
		<stop  offset="0" style="stop-color:#FFFFFF"/>
		<stop  offset="2.278286e-02" style="stop-color:#FCEEDD"/>
		<stop  offset="6.721234e-02" style="stop-color:#F7D1A1"/>
		<stop  offset="0.11" style="stop-color:#F2B86E"/>
		<stop  offset="0.15" style="stop-color:#EFA547"/>
		<stop  offset="0.1865" style="stop-color:#EC972B"/>
		<stop  offset="0.2184" style="stop-color:#EB8F1A"/>
		<stop  offset="0.2421" style="stop-color:#EA8C14"/>
		<stop  offset="0.5421" style="stop-color:#C42B03"/>
		<stop  offset="0.7211" style="stop-color:#A11900"/>
		<stop  offset="0.8579" style="stop-color:#821301"/>
		<stop  offset="1" style="stop-color:#000000"/>
	</radialGradient>
	<path fill="url(#SVGID_16_)" d="M28.8,19.5l0,0.3l6.4,18.1c1.2-0.5,2.5-0.8,3.9-0.9L28.8,19.5z"/>
	
		<radialGradient id="SVGID_17_" cx="72.028" cy="214.729" r="51.3493" gradientTransform="matrix(0.9699 0.2435 -0.2435 0.9699 37.0508 -213.1112)" gradientUnits="userSpaceOnUse">
		<stop  offset="0" style="stop-color:#FFFFFF"/>
		<stop  offset="2.278286e-02" style="stop-color:#FCEEDD"/>
		<stop  offset="6.721234e-02" style="stop-color:#F7D1A1"/>
		<stop  offset="0.11" style="stop-color:#F2B86E"/>
		<stop  offset="0.15" style="stop-color:#EFA547"/>
		<stop  offset="0.1865" style="stop-color:#EC972B"/>
		<stop  offset="0.2184" style="stop-color:#EB8F1A"/>
		<stop  offset="0.2421" style="stop-color:#EA8C14"/>
		<stop  offset="0.5421" style="stop-color:#C42B03"/>
		<stop  offset="0.7211" style="stop-color:#A11900"/>
		<stop  offset="0.8579" style="stop-color:#821301"/>
		<stop  offset="1" style="stop-color:#000000"/>
	</radialGradient>
	<path fill="url(#SVGID_17_)" d="M31.6,39.9c1.1-0.9,2.3-1.6,3.6-2.1l-6.4-18.1L31.6,39.9z"/>
	
		<linearGradient id="SVGID_18_" gradientUnits="userSpaceOnUse" x1="71.9933" y1="238.4695" x2="68.1584" y2="245.7907" gradientTransform="matrix(0.9699 0.2435 -0.2435 0.9699 37.0508 -213.1112)">
		<stop  offset="0" style="stop-color:#B5B7B9"/>
		<stop  offset="3.249786e-02" style="stop-color:#B2B4B6"/>
		<stop  offset="5.691342e-02" style="stop-color:#A9AAAD"/>
		<stop  offset="7.869470e-02" style="stop-color:#999A9D"/>
		<stop  offset="9.892479e-02" style="stop-color:#838387"/>
		<stop  offset="0.1179" style="stop-color:#66666A"/>
		<stop  offset="0.1236" style="stop-color:#5C5C60"/>
		<stop  offset="0.1308" style="stop-color:#737376"/>
		<stop  offset="0.1459" style="stop-color:#9E9EA0"/>
		<stop  offset="0.1613" style="stop-color:#C1C1C2"/>
		<stop  offset="0.1768" style="stop-color:#DCDCDD"/>
		<stop  offset="0.1925" style="stop-color:#F0F0F0"/>
		<stop  offset="0.2083" style="stop-color:#FBFBFB"/>
		<stop  offset="0.2247" style="stop-color:#FFFFFF"/>
		<stop  offset="0.2345" style="stop-color:#FCFCFC"/>
		<stop  offset="0.3107" style="stop-color:#EAEAEB"/>
		<stop  offset="0.3901" style="stop-color:#DFE0E0"/>
		<stop  offset="0.4775" style="stop-color:#DBDCDD"/>
		<stop  offset="0.5674" style="stop-color:#9B9C9E"/>
		<stop  offset="0.7191" style="stop-color:#FFFFFF"/>
		<stop  offset="0.7765" style="stop-color:#FDFDFD"/>
		<stop  offset="0.8028" style="stop-color:#F5F5F5"/>
		<stop  offset="0.8227" style="stop-color:#E9E9E9"/>
		<stop  offset="0.8258" style="stop-color:#E6E6E6"/>
		<stop  offset="0.927" style="stop-color:#797A7D"/>
		<stop  offset="1" style="stop-color:#B9BBBD"/>
	</linearGradient>
	<path fill="url(#SVGID_18_)" d="M31.7,40l0,0.2L42.2,58l-0.1-0.4l-7-19.8C33.9,38.4,32.7,39.1,31.7,40z"/>
	
		<linearGradient id="SVGID_19_" gradientUnits="userSpaceOnUse" x1="126.1108" y1="-379.8565" x2="66.5451" y2="-182.2976" gradientTransform="matrix(0.9432 -0.3323 0.3323 0.9432 38.3378 281.5157)">
		<stop  offset="0" style="stop-color:#B5B7B9"/>
		<stop  offset="3.249786e-02" style="stop-color:#B2B4B6"/>
		<stop  offset="5.691342e-02" style="stop-color:#A9AAAD"/>
		<stop  offset="7.869470e-02" style="stop-color:#999A9D"/>
		<stop  offset="9.892479e-02" style="stop-color:#838387"/>
		<stop  offset="0.1179" style="stop-color:#66666A"/>
		<stop  offset="0.1236" style="stop-color:#5C5C60"/>
		<stop  offset="0.1308" style="stop-color:#737376"/>
		<stop  offset="0.1459" style="stop-color:#9E9EA0"/>
		<stop  offset="0.1613" style="stop-color:#C1C1C2"/>
		<stop  offset="0.1768" style="stop-color:#DCDCDD"/>
		<stop  offset="0.1925" style="stop-color:#F0F0F0"/>
		<stop  offset="0.2083" style="stop-color:#FBFBFB"/>
		<stop  offset="0.2247" style="stop-color:#FFFFFF"/>
		<stop  offset="0.2345" style="stop-color:#FCFCFC"/>
		<stop  offset="0.3107" style="stop-color:#EAEAEB"/>
		<stop  offset="0.3901" style="stop-color:#DFE0E0"/>
		<stop  offset="0.4775" style="stop-color:#DBDCDD"/>
		<stop  offset="0.5674" style="stop-color:#9B9C9E"/>
		<stop  offset="0.7191" style="stop-color:#FFFFFF"/>
		<stop  offset="0.7765" style="stop-color:#FDFDFD"/>
		<stop  offset="0.8028" style="stop-color:#F5F5F5"/>
		<stop  offset="0.8227" style="stop-color:#E9E9E9"/>
		<stop  offset="0.8258" style="stop-color:#E6E6E6"/>
		<stop  offset="0.927" style="stop-color:#797A7D"/>
		<stop  offset="1" style="stop-color:#B9BBBD"/>
	</linearGradient>
	<path fill="url(#SVGID_19_)" d="M39.1,37c-1.3,0.1-2.7,0.4-3.9,0.9l7,19.8l-2.8-20.2L39.1,37z"/>
	
		<radialGradient id="SVGID_20_" cx="65.582" cy="250.9847" r="91.1413" gradientTransform="matrix(0.9699 0.2435 -0.2435 0.9699 37.0508 -213.1112)" gradientUnits="userSpaceOnUse">
		<stop  offset="0" style="stop-color:#FFFFFF"/>
		<stop  offset="0.5394" style="stop-color:#777777"/>
		<stop  offset="1" style="stop-color:#000000"/>
	</radialGradient>
	<path fill="url(#SVGID_20_)" d="M39.1,37c-1.3,0.1-2.7,0.4-3.9,0.9l7,19.8l-2.8-20.2L39.1,37z"/>
	
		<radialGradient id="SVGID_21_" cx="57.9281" cy="227.6152" r="44.1894" gradientTransform="matrix(0.9699 0.2435 -0.2435 0.9699 37.0508 -213.1112)" gradientUnits="userSpaceOnUse">
		<stop  offset="0" style="stop-color:#FFFFFF"/>
		<stop  offset="1" style="stop-color:#020303"/>
	</radialGradient>
	<circle fill="url(#SVGID_21_)" cx="35.9" cy="39" r="3"/>
	
		<radialGradient id="SVGID_22_" cx="59.6554" cy="244.0144" r="39.4352" gradientTransform="matrix(0.9699 0.2435 -0.2435 0.9699 37.0508 -213.1112)" gradientUnits="userSpaceOnUse">
		<stop  offset="0" style="stop-color:#FFFFFF"/>
		<stop  offset="1" style="stop-color:#070707"/>
	</radialGradient>
	<path fill="url(#SVGID_22_)" d="M35.6,40.2c-0.7-0.2-1.1-0.8-0.9-1.5c0.2-0.7,0.8-1.1,1.5-0.9c0.7,0.2,1,0.8,0.9,1.5
		C36.9,39.9,36.3,40.3,35.6,40.2L35.6,40.2z"/>
	<g>
		<path fill="#FFFFFF" d="M37.1,25.5l1.4-5.7l0.8,0.2l1.1,3.3c0.3,0.8,0.4,1.4,0.6,2.1l0,0c0.1-0.8,0.3-1.5,0.5-2.3l0.6-2.4l0.7,0.2
			l-1.4,5.7l-0.7-0.2l-1.1-3.3c-0.2-0.7-0.5-1.5-0.6-2.2l0,0c-0.1,0.7-0.3,1.4-0.5,2.4l-0.6,2.4L37.1,25.5z"/>
	</g>
	<g>
		<path fill="#FFFFFF" d="M29.5,55.7c0.3,0.3,0.9,0.7,1.5,0.8c0.9,0.2,1.5-0.1,1.7-0.8c0.2-0.6-0.1-1.1-0.9-1.7
			c-1-0.7-1.5-1.4-1.3-2.4c0.3-1.1,1.3-1.6,2.6-1.3c0.7,0.2,1.1,0.5,1.4,0.7l-0.4,0.6c-0.2-0.2-0.6-0.5-1.2-0.6
			c-0.9-0.2-1.4,0.2-1.5,0.7c-0.2,0.6,0.2,1,1,1.6c1,0.7,1.5,1.4,1.2,2.4c-0.3,1-1.3,1.8-2.9,1.4c-0.6-0.2-1.3-0.5-1.6-0.9
			L29.5,55.7z"/>
	</g>
	<g>
		<path fill="#FFFFFF" d="M51.6,44.4l0.6-2.6l-2.4-0.6l-0.7,2.9l-0.7-0.2l0.9-3.7l6.6,1.7L55,45.4l-0.7-0.2l0.7-2.7L52.9,42
			l-0.6,2.6L51.6,44.4z"/>
	</g>
	<g>
		<path fill="#FFFFFF" d="M21.1,37.1l-5.5,0l0.2-0.7l2.8,0c0.7,0,1.4,0,1.9,0.1l0,0c-0.5-0.2-1.1-0.5-1.7-0.9l-2.4-1.3l0.2-0.7
			l2.8,0c0.6,0,1.3,0,1.9,0.1l0,0c-0.5-0.2-1.1-0.5-1.7-0.9L17,31.6l0.2-0.7l4.8,2.7l-0.2,0.7l-2.8,0c-0.7,0-1.2,0-1.8-0.1l0,0
			c0.5,0.2,1,0.5,1.6,0.8l2.5,1.4L21.1,37.1z"/>
	</g>
</g>
</svg>
