<?xml version="1.0" encoding="utf-8"?>
<!-- Generator: Adobe Illustrator 18.1.1, SVG Export Plug-In . SVG Version: 6.00 Build 0)  -->
<svg version="1.1" id="Ebene_1" xmlns="http://www.w3.org/2000/svg" xmlns:xlink="http://www.w3.org/1999/xlink" x="0px" y="0px"
	 viewBox="0 0 72 72" enable-background="new 0 0 72 72" xml:space="preserve">
<g>
	<g id="b">
		<ellipse fill="#79C257" cx="36" cy="29.8" rx="9.1" ry="8.4"/>
		<path fill="#79C257" d="M29.1,27.7h13.8c1.2,0,2.2,1,2.2,2.2v13.8c0,1.2-1,2.2-2.2,2.2H29.1c-1.2,0-2.2-1-2.2-2.2V29.9
			C26.9,28.7,27.9,27.7,29.1,27.7z"/>
	</g>
</g>
<path fill="#79C257" d="M30,19.2L30,19.2c-0.3,0.2-0.4,0.6-0.3,0.9l3.5,6.4c0.2,0.3,0.6,0.4,0.9,0.3l0,0c0.3-0.2,0.4-0.6,0.3-0.9
	l-3.5-6.4C30.7,19.1,30.3,19,30,19.2z"/>
<path id="c" fill="#79C257" d="M48.6,29.8L48.6,29.8c-1.3,0-2.4,1.1-2.4,2.4v8.5c0,1.3,1.1,2.4,2.4,2.4l0,0c1.3,0,2.4-1.1,2.4-2.4
	v-8.5C51,30.9,49.9,29.8,48.6,29.8z"/>
<path fill="#79C257" d="M42,19.2L42,19.2c0.3,0.2,0.4,0.6,0.3,0.9l-3.5,6.4c-0.2,0.3-0.6,0.4-0.9,0.3l0,0c-0.3-0.2-0.4-0.6-0.3-0.9
	l3.5-6.4C41.3,19.1,41.7,19,42,19.2z"/>
<path id="c_2_" fill="#79C257" d="M23.4,29.8L23.4,29.8c1.3,0,2.4,1.1,2.4,2.4v8.5c0,1.3-1.1,2.4-2.4,2.4l0,0
	c-1.3,0-2.4-1.1-2.4-2.4v-8.5C21,30.9,22.1,29.8,23.4,29.8z"/>
<g>
	<g transform="scale(-1,1)">
		<path id="c_1_" fill="#79C257" d="M-40.2,39.3L-40.2,39.3c-1.3,0-2.4,1.1-2.4,2.4v8.5c0,1.3,1.1,2.4,2.4,2.4l0,0
			c1.3,0,2.4-1.1,2.4-2.4v-8.5C-37.8,40.3-38.9,39.3-40.2,39.3z"/>
	</g>
	<g>
		<path id="c_3_" fill="#79C257" d="M31.8,39.3L31.8,39.3c1.3,0,2.4,1.1,2.4,2.4v8.5c0,1.3-1.1,2.4-2.4,2.4l0,0
			c-1.3,0-2.4-1.1-2.4-2.4v-8.5C29.4,40.3,30.5,39.3,31.8,39.3z"/>
	</g>
</g>
<g id="b_1_">
	<ellipse fill="#79C257" cx="36" cy="29.8" rx="9.1" ry="8.4"/>
	<path fill="#79C257" d="M29.1,27.7h13.8c1.2,0,2.2,1,2.2,2.2v13.8c0,1.2-1,2.2-2.2,2.2H29.1c-1.2,0-2.2-1-2.2-2.2V29.9
		C26.9,28.7,27.9,27.7,29.1,27.7z"/>
</g>
<g>
	<path fill="#FFFFFF" d="M26.5,30.2h19"/>
	<circle fill="#FFFFFF" stroke="#FFFFFF" stroke-width="0.8536" stroke-miterlimit="10" cx="31.8" cy="25.7" r="0.4"/>
	<circle fill="#FFFFFF" stroke="#FFFFFF" stroke-width="0.8536" stroke-miterlimit="10" cx="40.2" cy="25.7" r="0.4"/>
</g>
</svg>
