<?xml version="1.0" encoding="utf-8"?>
<!-- Generator: Adobe Illustrator 18.1.1, SVG Export Plug-In . SVG Version: 6.00 Build 0)  -->
<svg version="1.1" id="Ebene_1" xmlns="http://www.w3.org/2000/svg" xmlns:xlink="http://www.w3.org/1999/xlink" x="0px" y="0px"
	 viewBox="0 0 72 72" enable-background="new 0 0 72 72" xml:space="preserve">
<path fill="#fafafa" d="M50.3,45.9c-0.5,1.2-1.2,2.4-1.9,3.4c-1,1.4-1.8,2.4-2.4,3c-1,0.9-2,1.4-3.1,1.4c-0.8,0-1.8-0.2-2.9-0.7
	c-1.1-0.5-2.2-0.7-3.1-0.7c-1,0-2.1,0.2-3.2,0.7c-1.1,0.5-2.1,0.7-2.8,0.7c-1.1,0-2.1-0.4-3.2-1.4c-0.7-0.6-1.5-1.6-2.6-3.1
	c-1.1-1.5-2-3.3-2.7-5.4c-0.8-2.2-1.1-4.3-1.1-6.4c0-2.4,0.5-4.4,1.5-6.1c0.8-1.4,1.9-2.5,3.2-3.3c1.3-0.8,2.8-1.2,4.4-1.2
	c0.9,0,2,0.3,3.4,0.8c1.4,0.5,2.3,0.8,2.7,0.8c0.3,0,1.3-0.3,3-0.9c1.6-0.6,2.9-0.8,4-0.7c3,0.2,5.2,1.4,6.7,3.5
	c-2.7,1.6-4,3.9-3.9,6.8c0,2.3,0.8,4.1,2.4,5.6c0.7,0.7,1.5,1.2,2.4,1.6C50.7,44.8,50.5,45.3,50.3,45.9L50.3,45.9z M43.4,19
	c0,1.8-0.6,3.4-1.9,4.9c-1.6,1.8-3.4,2.9-5.5,2.7c0-0.2,0-0.4,0-0.7c0-1.7,0.7-3.5,2-5c0.7-0.8,1.5-1.4,2.5-1.9c1-0.5,2-0.8,2.9-0.8
	C43.4,18.6,43.4,18.8,43.4,19L43.4,19z"/>
</svg>
