<?xml version="1.0" encoding="utf-8"?>
<!-- Generator: Adobe Illustrator 18.1.1, SVG Export Plug-In . SVG Version: 6.00 Build 0)  -->
<svg version="1.1" id="Ebene_1" xmlns="http://www.w3.org/2000/svg" xmlns:xlink="http://www.w3.org/1999/xlink" x="0px" y="0px"
	 viewBox="0 0 72 72" enable-background="new 0 0 72 72" xml:space="preserve">
<g>
	<g>
		<path fill="none" stroke="#333333" stroke-width="2" stroke-miterlimit="10" d="M17,61.3L2.7,32.9c-2.5-5-0.5-11,4.5-13.5
			L40.6,2.6c5-2.5,11-0.5,13.5,4.5l15.8,31.5c2.5,5,0.5,11-4.5,13.5L32.1,68.9c-5,2.5-11,0.5-13.5-4.5l-1.7-3.4"/>
	</g>
	<path fill="none" stroke="#333333" stroke-width="2" stroke-linecap="round" stroke-miterlimit="10" d="M17.5,46.8l4.4-11.5
		c0.1-0.4,0.6-0.6,1-0.5l12.4,4.8l3.3-8.2c0.1-0.4,0.6-0.6,1-0.5L60.3,39"/>
	<path fill="none" stroke="#333333" stroke-width="2" stroke-linecap="round" stroke-miterlimit="10" d="M49.1,19.8
		c-1-2-3.4-2.8-5.4-1.8c-2,1-2.8,3.4-1.8,5.4c1,2,3.4,2.8,5.4,1.8c1.2-0.6,2-1.7,2.2-2.9C49.6,21.4,49.5,20.5,49.1,19.8z"/>
</g>
</svg>
