<?xml version="1.0" encoding="utf-8"?>
<!-- Generator: Adobe Illustrator 18.1.1, SVG Export Plug-In . SVG Version: 6.00 Build 0)  -->
<svg version="1.1" id="Ebene_1" xmlns="http://www.w3.org/2000/svg" xmlns:xlink="http://www.w3.org/1999/xlink" x="0px" y="0px"
	 viewBox="0 0 72 72" enable-background="new 0 0 72 72" xml:space="preserve">
<g>
	<path fill="none" stroke="#FFFFFF" stroke-width="2" stroke-miterlimit="10" d="M44.2,32.5c0.7,1.5,0.8,3.1,0.6,4.6
		c-0.4,3-2.3,5.6-5.3,6.9c-4.5,2-9.7-0.1-11.6-4.5s0.2-9.6,4.7-11.6S42.2,28,44.2,32.5z"/>
	<path fill="none" stroke="#FFFFFF" stroke-width="2" stroke-miterlimit="10" d="M17,33.2c-0.3-0.1-0.5-0.5-0.3-0.8l2.7-7
		c0.1-0.3,0.5-0.5,0.8-0.4l4,1.6c0.6-0.8,1.3-1.5,1.9-2.1l-1.7-4c-0.1-0.3,0.4-0.4,0.7-0.6l6.9-3c0.3-0.1,0.4-0.3,0.5,0l1.7,4
		c0.9-0.1,2-0.2,3-0.1l1.7-4.1c0.1-0.3,0.5-0.5,0.9-0.3l7,2.7c0.3,0.1,0.5,0.5,0.4,0.8l-1.7,4c0.8,0.6,1.5,1.3,2,1.9l4.1-1.8
		c0.3-0.1,0.8,0.2,0.9,0.6l3,6.9c0.1,0.3-0.1,0.5-0.4,0.7L51,34.1c0.1,0.8,0.2,2,0.1,3l4.2,1.7c0.3,0.1,0.5,0.5,0.3,0.9l-2.7,7
		c-0.1,0.3-0.5,0.5-0.8,0.4l-4.2-1.6c-0.6,0.7-1.4,1.5-2.1,2.1l1.8,4.1c0.1,0.3,0.1,0.6-0.2,0.7l-6.9,3c-0.3,0.1-0.9,0.1-1-0.2
		L37.6,51c-0.8,0.1-1.8,0.1-2.8,0l-1.6,4.1c-0.1,0.3-0.5,0.5-0.8,0.3l-6.9-2.8c-0.3-0.1-0.5-0.5-0.4-0.8l1.6-4.2
		c-0.8-0.6-1.6-1.5-2.1-2.1l-4,1.8c-0.3,0.1-1,0.3-1.1,0l-3-6.9c-0.1-0.3,0.3-1.1,0.6-1.2l4-1.7c-0.1-0.9-0.1-1.9,0-2.8L17,33.2z"/>
</g>
</svg>
