<?xml version="1.0" encoding="utf-8"?>
<!-- Generator: Adobe Illustrator 18.1.1, SVG Export Plug-In . SVG Version: 6.00 Build 0)  -->
<svg version="1.1" id="Ebene_1" xmlns="http://www.w3.org/2000/svg" xmlns:xlink="http://www.w3.org/1999/xlink" x="0px" y="0px"
	 viewBox="0 0 72 72" enable-background="new 0 0 72 72" xml:space="preserve">
<g>
	<g>
		<path fill="none" stroke="#FFFFFF" stroke-width="2" stroke-miterlimit="10" d="M18.2,44.7V25.1c0-3.4,2.8-6.2,6.2-6.2h23.1
			c3.4,0,6.2,2.8,6.2,6.2v21.8c0,3.4-2.8,6.2-6.2,6.2H24.5c-3.4,0-6.2-2.8-6.2-6.2v-2.3"/>
	</g>
	<path fill="none" stroke="#FFFFFF" stroke-width="2" stroke-linecap="round" stroke-miterlimit="10" d="M22.5,36.9l5.6-5.1
		c0.2-0.2,0.5-0.2,0.7,0l5.5,6.1l4.1-3.6c0.2-0.2,0.5-0.2,0.7,0l9.2,10.2"/>
	<path fill="none" stroke="#FFFFFF" stroke-width="2" stroke-linecap="round" stroke-miterlimit="10" d="M47.5,30.7
		c0-1.4-1.1-2.5-2.5-2.5c-1.4,0-2.5,1.1-2.5,2.5c0,1.4,1.1,2.5,2.5,2.5c0.8,0,1.6-0.4,2-1C47.3,31.7,47.5,31.2,47.5,30.7z"/>
</g>
</svg>
