<?xml version="1.0" encoding="utf-8"?>
<!-- Generator: Adobe Illustrator 18.1.1, SVG Export Plug-In . SVG Version: 6.00 Build 0)  -->
<svg version="1.1" id="Ebene_1" xmlns="http://www.w3.org/2000/svg" xmlns:xlink="http://www.w3.org/1999/xlink" x="0px" y="0px"
	 viewBox="0 0 72 72" enable-background="new 0 0 72 72" xml:space="preserve">
<g>
	<g>
		<path fill="none" stroke="#FFFFFF" stroke-width="2" stroke-miterlimit="10" d="M19.2,35.3l0-11.5c0-3.4,2.8-6.2,6.2-6.2l23.1,0
			c3.4,0,6.2,2.8,6.2,6.2l0,21.8c0,3.4-2.8,6.2-6.2,6.2l-11.9,0"/>
	</g>
	<g>
		
			<ellipse transform="matrix(0.9173 -0.3983 0.3983 0.9173 -14.9265 14.8763)" fill="none" stroke="#FFFFFF" stroke-width="2" stroke-miterlimit="10" cx="28.3" cy="43.4" rx="5" ry="5"/>
		<path fill="none" stroke="#FFFFFF" stroke-width="2" stroke-miterlimit="10" d="M17.5,41.8c-0.2-0.1-0.3-0.3-0.2-0.5l1.6-3.9
			c0.1-0.2,0.3-0.3,0.5-0.2l2.3,0.9c0.3-0.4,0.8-0.8,1.1-1.2l-1-2.3c-0.1-0.2,0.2-0.2,0.4-0.3l3.9-1.7c0.2-0.1,0.2-0.2,0.3,0l1,2.3
			c0.5,0,1.2-0.1,1.7,0l0.9-2.3c0.1-0.2,0.3-0.3,0.5-0.2l4,1.6c0.2,0.1,0.3,0.3,0.2,0.5l-0.9,2.3c0.4,0.3,0.8,0.7,1.2,1.1l2.3-1
			c0.2-0.1,0.5,0.1,0.5,0.3l1.7,3.9c0.1,0.2-0.1,0.3-0.2,0.4l-2.3,1c0,0.5,0.1,1.1,0,1.7l2.4,1c0.2,0.1,0.3,0.3,0.2,0.5l-1.6,4
			c-0.1,0.2-0.3,0.3-0.5,0.2L35,48.7c-0.3,0.4-0.8,0.9-1.2,1.2l1,2.3c0.1,0.2,0.1,0.3-0.1,0.4l-3.9,1.7c-0.2,0.1-0.5,0.1-0.6-0.1
			l-1-2.3c-0.5,0-1,0-1.6,0l-0.9,2.3c-0.1,0.2-0.3,0.3-0.5,0.2l-3.9-1.6c-0.2-0.1-0.3-0.3-0.2-0.5L23,50c-0.4-0.3-0.9-0.8-1.2-1.2
			l-2.3,1c-0.2,0.1-0.6,0.2-0.6,0l-1.7-3.9c-0.1-0.2,0.2-0.6,0.3-0.7l2.3-1c0-0.5,0-1.1,0-1.6L17.5,41.8z"/>
	</g>
</g>
</svg>
