<?xml version="1.0" encoding="utf-8"?>
<!-- Generator: Adobe Illustrator 18.1.1, SVG Export Plug-In . SVG Version: 6.00 Build 0)  -->
<svg version="1.1" id="Ebene_1" xmlns="http://www.w3.org/2000/svg" xmlns:xlink="http://www.w3.org/1999/xlink" x="0px" y="0px"
	 viewBox="0 0 72 72" enable-background="new 0 0 72 72" xml:space="preserve">
<g>
	<g>
		<path fill="none" stroke="#FFFFFF" stroke-width="2" stroke-miterlimit="10" d="M36.9,29.8L25.3,18.3c-0.4-0.4-2.8,0.5-3.4,1.1
			l-2.8,2.8c-0.6,0.6-1.5,2.9-1.1,3.4l11.4,11.3"/>
		<path fill="none" stroke="#FFFFFF" stroke-width="2" stroke-miterlimit="10" d="M37.1,44.3l5.6,5.6c0.4,0.4,10.7,3.9,10.7,3.9
			s-3.1-10.7-3.5-11.1l-5.7-5.7"/>
		<line fill="none" stroke="#FFFFFF" stroke-width="2" stroke-miterlimit="10" x1="28" y1="20.9" x2="20.7" y2="28.2"/>
		<polyline fill="none" stroke="#FFFFFF" stroke-width="2" stroke-miterlimit="10" points="49.7,43.2 45.8,43.2 45.1,47.8 
			40.8,48.1 		"/>
	</g>
	<g>
		<path fill="none" stroke="#FFFFFF" stroke-width="2" stroke-miterlimit="10" d="M32.5,51.4c-2.5,1.4-6.5,3.6-14,1.2
			c-0.4-0.1-0.6-1-0.2-1.2c7-3.1,4.2-6.4,5.5-9.4c1.4-3.4,4.8-4.3,7.1-3.2l4.7,4.7C36,45.9,35.1,49.9,32.5,51.4z"/>
		<path fill="none" stroke="#FFFFFF" stroke-width="2" stroke-miterlimit="10" d="M49.5,20.4c0.6-0.6,1.6-0.7,2.1-0.2l2,2
			c0.5,0.5,0.4,1.5-0.2,2.1L35.8,42.5c-0.6,0.6-1,0.2-1.6-0.4l-2-2c-0.5-0.5-1-0.9-0.4-1.6L49.5,20.4z"/>
		<line fill="none" stroke="#FFFFFF" stroke-width="2" stroke-miterlimit="10" x1="34.5" y1="35.7" x2="38.2" y2="39.4"/>
	</g>
</g>
</svg>
