<?xml version="1.0" encoding="utf-8"?>
<!-- Generator: Adobe Illustrator 18.1.1, SVG Export Plug-In . SVG Version: 6.00 Build 0)  -->
<svg version="1.1" id="Ebene_1" xmlns="http://www.w3.org/2000/svg" xmlns:xlink="http://www.w3.org/1999/xlink" x="0px" y="0px"
	 viewBox="0 0 72 72" enable-background="new 0 0 72 72" xml:space="preserve">
<g>
	<g>
		<path fill="none" stroke="#FFFFFF" stroke-width="2" stroke-miterlimit="10" d="M19.3,41.6V25.1c0-3.4,2.8-6.2,6.2-6.2h23.1
			c3.4,0,6.2,2.8,6.2,6.2v21.8c0,3.4-2.8,6.2-6.2,6.2H25.6c-1.4,0-2.6-0.4-3.7-1.2"/>
	</g>
	<g>
		<path fill="none" stroke="#FFFFFF" stroke-width="2" stroke-miterlimit="10" d="M28.8,47.5c-2.1,1.2-5.3,2.9-11.4,1
			c-0.4-0.1-0.5-0.8-0.2-0.9c5.7-2.5,3.4-5.2,4.5-7.6c1.2-2.8,3.9-3.5,5.8-2.6l3.8,3.8C31.7,43.1,31,46.3,28.8,47.5z"/>
		<path fill="none" stroke="#FFFFFF" stroke-width="2" stroke-miterlimit="10" d="M42.7,22.5c0.5-0.5,1.3-0.6,1.7-0.2l1.6,1.6
			c0.4,0.4,0.4,1.2-0.2,1.7L31.5,40.3c-0.5,0.5-0.8,0.1-1.3-0.3l-1.6-1.6c-0.4-0.4-0.8-0.7-0.3-1.3L42.7,22.5z"/>
		<line fill="none" stroke="#FFFFFF" stroke-width="2" stroke-miterlimit="10" x1="30.5" y1="34.8" x2="33.5" y2="37.9"/>
	</g>
</g>
</svg>
