<?xml version="1.0" encoding="utf-8"?>
<!-- Generator: Adobe Illustrator 18.1.1, SVG Export Plug-In . SVG Version: 6.00 Build 0)  -->
<svg version="1.1" id="Ebene_1" xmlns="http://www.w3.org/2000/svg" xmlns:xlink="http://www.w3.org/1999/xlink" x="0px" y="0px"
	 viewBox="0 0 72 72" enable-background="new 0 0 72 72" xml:space="preserve">
<g>
	<path fill="#FFFFFF" d="M57.9,25.5H14.1c-1.6,0-3-1.3-3-3v0c0-1.6,1.3-3,3-3h43.8c1.6,0,3,1.3,3,3v0C60.9,24.2,59.5,25.5,57.9,25.5
		z"/>
	<path fill="#FFFFFF" d="M57.9,39H14.1c-1.6,0-3-1.3-3-3v0c0-1.6,1.3-3,3-3h43.8c1.6,0,3,1.3,3,3v0C60.9,37.6,59.5,39,57.9,39z"/>
	<path fill="#FFFFFF" d="M57.9,52.4H14.1c-1.6,0-3-1.3-3-3v0c0-1.6,1.3-3,3-3h43.8c1.6,0,3,1.3,3,3v0C60.9,51.1,59.5,52.4,57.9,52.4
		z"/>
</g>
</svg>
