<?xml version="1.0" encoding="utf-8"?>
<!-- Generator: Adobe Illustrator 18.1.1, SVG Export Plug-In . SVG Version: 6.00 Build 0)  -->
<svg version="1.1" id="Ebene_1" xmlns="http://www.w3.org/2000/svg" xmlns:xlink="http://www.w3.org/1999/xlink" x="0px" y="0px"
	 viewBox="0 0 72 72" enable-background="new 0 0 72 72" xml:space="preserve">
<g>
	<g>
		<g>
			<path fill="none" stroke="#FFFFFF" stroke-width="2" stroke-miterlimit="10" d="M31,36.8l9.2-14.4c0.2-0.4,2.1-0.2,2.6,0.2
				l2.5,1.5c0.5,0.3,1.6,1.9,1.4,2.2L38,40.1"/>
			<line fill="none" stroke="#FFFFFF" stroke-width="2" stroke-miterlimit="10" x1="38.3" y1="25.2" x2="45" y2="29.1"/>
		</g>
		<g>
			<path fill="none" stroke="#FFFFFF" stroke-width="2" stroke-miterlimit="10" d="M38.5,39.4L29.8,53c-0.2,0.4-2.1,0.2-2.6-0.2
				l-2.5-1.5c-0.5-0.3-1.6-1.9-1.4-2.2L32,35.4"/>
		</g>
	</g>
	<polygon fill="none" stroke="#FFFFFF" stroke-width="2" stroke-miterlimit="10" points="24.9,31.3 22.4,27.6 18,27.6 20.7,24.1 
		19.3,19.9 23.5,21.4 27.1,18.8 27,23.2 30.6,25.8 26.3,27.1 	"/>
	<polygon fill="none" stroke="#FFFFFF" stroke-width="2" stroke-miterlimit="10" points="49.4,47.7 47.4,44.7 43.8,44.7 46,41.9 
		44.9,38.4 48.3,39.6 51.2,37.5 51.1,41.1 54,43.3 50.6,44.3 	"/>
</g>
</svg>
