<?xml version="1.0" encoding="utf-8"?>
<!-- Generator: Adobe Illustrator 18.1.1, SVG Export Plug-In . SVG Version: 6.00 Build 0)  -->
<svg version="1.1" id="Ebene_1" xmlns="http://www.w3.org/2000/svg" xmlns:xlink="http://www.w3.org/1999/xlink" x="0px" y="0px"
	 viewBox="0 0 72 72" enable-background="new 0 0 72 72" xml:space="preserve">
<g>
	<path fill="none" stroke="#FFFFFF" stroke-width="2" stroke-miterlimit="10" d="M50.4,20.5v-0.6c0-0.3-0.3-0.6-0.6-0.6h-8.1
		c-0.3,0-0.6,0.3-0.6,0.6v8.1"/>
	<path fill="none" stroke="#FFFFFF" stroke-width="2" stroke-miterlimit="10" d="M26.8,44.1h-9.9c-0.3,0-0.6,0.3-0.6,0.6v7.5
		c0,0.3,0.3,0.6,0.6,0.6c0,0,32.7,0,32.9,0c0.2,0,0.6-0.4,0.6-0.6v0V35.5"/>
	<line fill="none" stroke="#FFFFFF" stroke-width="2" stroke-miterlimit="10" x1="41.1" y1="43.9" x2="45.4" y2="47.7"/>
	<g>
		<path fill="none" stroke="#FFFFFF" stroke-width="2" stroke-miterlimit="10" d="M27.8,47.9c-0.5,1.7-0.9,3.2-0.9,3.2
			s8.2-2.8,8.5-3.1l20.2-20.2c0.3-0.3-0.4-2.2-0.9-2.7L52.5,23c-0.5-0.5-2.3-1.2-2.7-0.9L29.6,42.3L27.8,47.9z"/>
		<line fill="none" stroke="#FFFFFF" stroke-width="2" stroke-miterlimit="10" x1="47.7" y1="24.2" x2="53.5" y2="30"/>
		<polyline fill="none" stroke="#FFFFFF" stroke-width="2" stroke-miterlimit="10" points="29.8,42.7 32.9,42.7 33.5,46.4 
			36.9,46.6 		"/>
	</g>
	<line fill="none" stroke="#FFFFFF" stroke-width="2" stroke-miterlimit="10" x1="18.8" y1="50.3" x2="18.8" y2="51.5"/>
	<line fill="none" stroke="#FFFFFF" stroke-width="2" stroke-miterlimit="10" x1="20.7" y1="50.3" x2="20.7" y2="51.5"/>
	<line fill="none" stroke="#FFFFFF" stroke-width="2" stroke-miterlimit="10" x1="24.4" y1="50.3" x2="24.4" y2="51.5"/>
	<line fill="none" stroke="#FFFFFF" stroke-width="2" stroke-miterlimit="10" x1="26.3" y1="50.3" x2="26.3" y2="51.5"/>
	<line fill="none" stroke="#FFFFFF" stroke-width="2" stroke-miterlimit="10" x1="33.1" y1="50.3" x2="33.1" y2="51.5"/>
	<line fill="none" stroke="#FFFFFF" stroke-width="2" stroke-miterlimit="10" x1="34.9" y1="50.3" x2="34.9" y2="51.5"/>
	<line fill="none" stroke="#FFFFFF" stroke-width="2" stroke-miterlimit="10" x1="38.7" y1="50.3" x2="38.7" y2="51.5"/>
	<line fill="none" stroke="#FFFFFF" stroke-width="2" stroke-miterlimit="10" x1="40.5" y1="50.3" x2="40.5" y2="51.5"/>
	<line fill="none" stroke="#FFFFFF" stroke-width="2" stroke-miterlimit="10" x1="44.2" y1="50.3" x2="44.2" y2="51.5"/>
	<line fill="none" stroke="#FFFFFF" stroke-width="2" stroke-miterlimit="10" x1="46.1" y1="50.3" x2="46.1" y2="51.5"/>
	<line fill="none" stroke="#FFFFFF" stroke-width="2" stroke-miterlimit="10" x1="48" y1="49.1" x2="48" y2="51.5"/>
	<line fill="none" stroke="#FFFFFF" stroke-width="2" stroke-miterlimit="10" x1="42.4" y1="49.1" x2="42.4" y2="51.5"/>
	<line fill="none" stroke="#FFFFFF" stroke-width="2" stroke-miterlimit="10" x1="36.8" y1="49.1" x2="36.8" y2="51.5"/>
	<line fill="none" stroke="#FFFFFF" stroke-width="2" stroke-miterlimit="10" x1="22.6" y1="49" x2="22.6" y2="51.5"/>
</g>
</svg>
