<?xml version="1.0" encoding="utf-8"?>
<!-- Generator: Adobe Illustrator 18.1.1, SVG Export Plug-In . SVG Version: 6.00 Build 0)  -->
<svg version="1.1" id="Ebene_1" xmlns="http://www.w3.org/2000/svg" xmlns:xlink="http://www.w3.org/1999/xlink" x="0px" y="0px"
	 viewBox="0 0 72 72" enable-background="new 0 0 72 72" xml:space="preserve">
<g>
	<path fill="none" stroke="#FFFFFF" stroke-width="2" stroke-miterlimit="10" d="M22.5,31.2c0-1.8,0.4-3.6,1.1-5.4
		c2.1-5.1,6.7-8,12.3-8c7.6,0,13.5,6.5,13.5,13.4"/>
	<g>
		<path fill="none" stroke="#FFFFFF" stroke-width="2" stroke-miterlimit="10" d="M48.8,33H22.7c-0.5,0-0.9,0.5-0.9,1v0.4
			c0,0.5,0.4,0.9,0.9,0.9l3.9,18c0,0.5,0.4,0.9,0.9,0.9h15.9c0.5,0,0.9-0.4,0.9-0.9L48.2,38c0,0-9.7-4.2-9.7-0.1
			c0,3.3,0.4,6.6-1.4,6.6c-2,0,0-7.9-1.9-7.9c-2.6,0-1.8,4.3-3.3,4.3c-1.2,0-1.4-4.8-3-4.8"/>
		<path fill="none" stroke="#FFFFFF" stroke-width="2" stroke-miterlimit="10" d="M23.1,33h26.1c0.6,0,1,0.5,1,1v0.4
			c0,0.5-0.4,0.9-1.1,0.9l-5,18.2"/>
	</g>
</g>
</svg>
