<?xml version="1.0" encoding="utf-8"?>
<!-- Generator: Adobe Illustrator 18.1.1, SVG Export Plug-In . SVG Version: 6.00 Build 0)  -->
<svg version="1.1" id="Ebene_1" xmlns="http://www.w3.org/2000/svg" xmlns:xlink="http://www.w3.org/1999/xlink" x="0px" y="0px"
	 viewBox="0 0 72 72" enable-background="new 0 0 72 72" xml:space="preserve">
<g>
	<path fill="none" stroke="#FFFFFF" stroke-width="2" stroke-miterlimit="10" d="M60.8,23.1c-7.1,1.8-15.6,2.8-24.7,2.8
		c-9.1,0-17.6-1-24.7-2.8"/>
	<ellipse fill="none" stroke="#FFFFFF" stroke-width="2" stroke-miterlimit="10" cx="36" cy="36.7" rx="28.7" ry="28.7"/>
	<path fill="none" stroke="#FFFFFF" stroke-width="2" stroke-miterlimit="10" d="M60.2,50.9C53.1,49.1,44.6,48,35.5,48
		c-9.1,0-17.6,1-24.7,2.8"/>
	<g>
		<path fill="none" stroke="#FFFFFF" stroke-width="2" stroke-miterlimit="10" d="M37.7,7.9c7.7,8.2,12.1,18.1,12.1,28.6
			c0,10.6-4.4,20.4-12.1,28.6"/>
		<path fill="none" stroke="#FFFFFF" stroke-width="2" stroke-miterlimit="10" d="M33.6,65.2C25.9,57,21.5,47.1,21.5,36.6
			c0-10.6,4.4-20.4,12.1-28.6"/>
	</g>
</g>
</svg>
