<?xml version="1.0" encoding="utf-8"?>
<!-- Generator: Adobe Illustrator 18.1.1, SVG Export Plug-In . SVG Version: 6.00 Build 0)  -->
<svg version="1.1" id="Ebene_1" xmlns="http://www.w3.org/2000/svg" xmlns:xlink="http://www.w3.org/1999/xlink" x="0px" y="0px"
	 viewBox="0 0 72 72" enable-background="new 0 0 72 72" xml:space="preserve">
<g id="Layer_x0020_1">
	<g id="_26257872464">
		<path id="path5" fill="#0078D6" d="M34.7,23.1c5.5-0.9,11.1-1.7,16.6-2.5v0.2v14.3c-5.5,0-11.1,0.1-16.6,0.1
			C34.7,31.3,34.7,27.2,34.7,23.1L34.7,23.1L34.7,23.1z"/>
		<path id="path7" fill="#0078D6" d="M20.7,25c4.1-0.7,8.3-1.2,12.5-1.7c0,4,0,7.9,0,12c-4.2,0-8.4,0.1-12.5,0.1V25L20.7,25L20.7,25
			z"/>
		<path id="path29" fill="#0078D6" d="M20.7,36.7c4.1,0,8.3,0.1,12.5,0c0,4,0,8.1,0,12.1c-4.2-0.6-8.4-1.1-12.5-1.7V36.7z"/>
		<path id="path31" fill="#0078D6" d="M34.7,36.8c5.5,0,11.1,0,16.6,0v13.9v0.7c-5.5-0.9-11.1-1.6-16.6-2.3
			C34.7,44.9,34.7,40.9,34.7,36.8L34.7,36.8z"/>
	</g>
</g>
</svg>
