<?xml version="1.0" encoding="utf-8"?>
<!-- Generator: Adobe Illustrator 18.1.1, SVG Export Plug-In . SVG Version: 6.00 Build 0)  -->
<svg version="1.1" id="Ebene_1" xmlns="http://www.w3.org/2000/svg" xmlns:xlink="http://www.w3.org/1999/xlink" x="0px" y="0px"
	 viewBox="0 0 200 72" enable-background="new 0 0 200 72" xml:space="preserve">
<g>
	<rect x="68.9" y="15.8" fill="none" width="126" height="33.5"/>
	<text transform="matrix(1 0 0 1 68.9209 43.4072)" fill="#E73C3B" font-family="'Arial-Black'" font-size="38.5644">LOGO</text>
	<g>
		<linearGradient id="SVGID_1_" gradientUnits="userSpaceOnUse" x1="30.7952" y1="9.716" x2="30.7952" y2="56.1647">
			<stop  offset="0" style="stop-color:#E7E7E8"/>
			<stop  offset="1" style="stop-color:#FFFFFF"/>
		</linearGradient>
		<path fill-rule="evenodd" clip-rule="evenodd" fill="url(#SVGID_1_)" d="M30.8,57.9c14,0,25.4-11.4,25.4-25.4S44.8,7.1,30.8,7.1
			c-14,0-25.4,11.4-25.4,25.4S16.8,57.9,30.8,57.9z"/>
		<path fill-rule="evenodd" clip-rule="evenodd" fill="#666666" d="M30.9,54.5c11.3,0,20.5-9.7,20.5-21.6c0-11.9-9.2-21.6-20.5-21.6
			c-11.3,0-20.5,9.7-20.5,21.6C10.4,44.8,19.6,54.5,30.9,54.5z"/>
		<path fill="#FFFFFF" d="M30.8,35.4c-0.4,0.3-0.7,0.8-0.9,1.5c-0.2,0.6-0.2,1.2,0.1,1.8c0.2,0.4,0.4,0.7,0.9,1
			c0.4,0.3,0.9,0.5,1.4,0.5c0.2,0,0.3,0,0.3,0.1c0,0,0,0.1-0.1,0.2c-0.8,0.1-1.6,0-2.3-0.4c-0.7-0.4-1.2-0.9-1.6-1.7
			c-0.3-0.8-0.4-1.7-0.3-2.6c0.2-0.9,0.5-1.7,1.2-2.3L27.6,31c-0.8,1.5-1.3,3-1.6,4.5c-0.3,1.4-0.2,2.8,0.4,4.1
			c0.3,0.6,0.6,1.1,1.1,1.5c0.5,0.4,1,0.8,1.6,1c1.3,0.5,2.6,0.5,4.1-0.1c0.5-0.2,0.9-0.6,1.4-0.9L30.8,35.4L30.8,35.4z M31.3,35.1
			c0.6-0.2,1.1-0.3,1.7-0.3c0.5,0.1,1.1,0.3,1.5,0.6c0.5,0.3,0.8,0.7,1.1,1.2c0.7,1.6,0.6,3-0.4,4L31.3,35.1L31.3,35.1z M26.1,27.6
			c0.2-0.3,0.4-0.7,0.5-1.2c0.2-0.5,0.3-1.1,0.4-1.8c0.1-0.6,0.1-1.3,0-1.9c-0.1-0.6-0.2-1.1-0.4-1.6c-0.1-0.2-0.2-0.4-0.3-0.5
			c-0.2-0.3-0.3-0.4-0.5-0.5c-0.2-0.1-0.4-0.1-0.7,0c-0.5,0.2-0.8,0.7-0.9,1.4c-0.1,0.6,0,1.3,0.1,2.1c0.1,0.8,0.3,1.5,0.6,2.2
			C25.2,26.6,25.6,27.2,26.1,27.6L26.1,27.6z M25.8,28.3c-0.9-1.1-1.7-2.3-2.3-3.6c-0.4-0.9-0.6-1.7-0.8-2.5
			c-0.2-0.8-0.2-1.6-0.2-2.2c0.1-0.7,0.2-1.2,0.5-1.7c0.2-0.4,0.4-0.6,0.5-0.7c0.1,0,0.2,0,0.3,0c0.1,0,0.3,0.1,0.5,0.2
			c1.5,0.9,2.7,2.3,3.5,4.2c0.4,0.9,0.7,1.8,0.8,2.8c0.1,1,0.2,1.9,0.1,2.9c-0.1,1-0.4,1.9-0.7,2.7l2,2.8c0.3-0.2,0.6-0.3,0.7-0.4
			c0.6-0.3,1.2-0.4,1.8-0.3c0.6,0,1.2,0.2,1.7,0.5c0.5,0.3,1,0.6,1.5,1.1c0.4,0.5,0.8,1,1,1.6c0.4,0.9,0.5,1.9,0.4,2.9
			c-0.2,1-0.6,1.9-1.5,2.7c0.2,0.4,0.6,0.9,1.1,1.5c0.5,0.7,0.9,1.2,1.1,1.6c0.3,0.4,0.5,0.8,0.7,1.2c0.3,0.6,0.4,1.2,0.3,1.9
			c-0.1,0.6-0.3,1.2-0.7,1.7c-0.4,0.5-0.9,0.9-1.5,1.2c-0.9,0.4-1.7,0.5-2.6,0.3c-0.9-0.2-1.5-0.7-1.9-1.5c-0.1-0.4-0.2-0.8-0.2-1.2
			c0-0.4,0.1-0.8,0.3-1.1c0.2-0.3,0.5-0.6,0.8-0.8c0.3-0.1,0.6-0.2,1-0.1c0.3,0.1,0.7,0.2,1,0.4c0.3,0.2,0.5,0.5,0.7,0.9
			c0.2,0.5,0.2,0.9,0,1.4c-0.2,0.5-0.5,0.8-1,1l-0.2,0.1c0.5,0.3,1.1,0.4,1.8,0.1c0.4-0.2,0.7-0.4,1-0.7c0.3-0.3,0.5-0.6,0.7-1
			c0.1-0.4,0.2-0.7,0.2-1c0-0.4-0.1-0.9-0.4-1.4c-0.2-0.4-0.4-0.7-0.6-1.1c-0.2-0.3-0.6-0.8-1-1.3c-0.4-0.5-0.7-1-0.9-1.3
			c-0.4,0.3-0.9,0.6-1.4,0.8C32.8,42.8,31.9,43,31,43c-0.9,0-1.8-0.2-2.7-0.6c-0.9-0.4-1.6-0.9-2.3-1.6c-0.7-0.7-1.2-1.4-1.6-2.3
			c-0.3-0.8-0.5-1.7-0.5-2.5c0-0.9,0-1.7,0.2-2.6c0.2-0.8,0.4-1.6,0.6-2.4C25,30.4,25.3,29.5,25.8,28.3z"/>
	</g>
</g>
</svg>
