<?xml version="1.0" encoding="utf-8"?>
<!-- Generator: Adobe Illustrator 18.1.1, SVG Export Plug-In . SVG Version: 6.00 Build 0)  -->
<svg version="1.1" id="Ebene_1" xmlns="http://www.w3.org/2000/svg" xmlns:xlink="http://www.w3.org/1999/xlink" x="0px" y="0px"
	 viewBox="0 0 72 72" enable-background="new 0 0 72 72" xml:space="preserve">
<g>
	<path fill="#297AEF" d="M8.9,58h50.2c2.2,0,4-1.8,4-4V18c0-2.2-1.8-4-4-4H8.9V58z"/>
	<path fill="none" stroke="#FFFFFF" stroke-width="2" stroke-miterlimit="10" d="M38.4,30.4c-12.4,0-22,9.7-22,21.8
		c0,1.8,1.7,1.7,2.6,0.2c3.7-7.1,10.3-12.2,19.5-12.2V51c0,0.1,0.4,0,0.6-0.1l14.5-15.1c0.1-0.1,0.1-0.4,0-0.5L39.1,20.1
		c-0.1-0.1-0.6,0-0.6,0.1v3.4L38.4,30.4z"/>
</g>
</svg>
