<?xml version="1.0" encoding="utf-8"?>
<!-- Generator: Adobe Illustrator 18.1.1, SVG Export Plug-In . SVG Version: 6.00 Build 0)  -->
<svg version="1.1" id="Ebene_1" xmlns="http://www.w3.org/2000/svg" xmlns:xlink="http://www.w3.org/1999/xlink" x="0px" y="0px"
	 viewBox="0 0 64 64" enable-background="new 0 0 64 64" xml:space="preserve">
<g>
	<g>
		<path fill="none" stroke="#333333" stroke-width="2.5" stroke-miterlimit="10" d="M33.3,55.4h-0.1c-4.2,0-7.7-3.5-7.7-7.7v-0.1
			c0-4.2,3.5-7.7,7.7-7.7h0.1c4.2,0,7.7,3.5,7.7,7.7v0.1C41.1,51.9,37.6,55.4,33.3,55.4z"/>
		<line fill="none" stroke="#333333" stroke-width="2.5" stroke-miterlimit="10" x1="40.3" y1="44.1" x2="17.4" y2="8.6"/>
		<path fill="none" stroke="#333333" stroke-width="2.5" stroke-miterlimit="10" d="M21.4,14.2"/>
	</g>
	<g>
		<path fill="none" stroke="#333333" stroke-width="2.5" stroke-miterlimit="10" d="M55.9,29.8l0-0.1c-0.4-4.2-4.1-7.4-8.3-7.1
			l-0.1,0C43.2,23,40,26.8,40.4,31l0,0.1c0.4,4.2,4.1,7.4,8.3,7.1l0.1,0C53.1,37.8,56.3,34,55.9,29.8z"/>
		<line fill="none" stroke="#333333" stroke-width="2.5" stroke-miterlimit="10" x1="45.3" y1="37.7" x2="8" y2="17.8"/>
		<path fill="none" stroke="#333333" stroke-width="2.5" stroke-miterlimit="10" d="M13.9,21.3"/>
	</g>
</g>
</svg>
