<?xml version="1.0" encoding="utf-8"?>
<!-- Generator: Adobe Illustrator 18.1.1, SVG Export Plug-In . SVG Version: 6.00 Build 0)  -->
<svg version="1.1" id="Ebene_1" xmlns="http://www.w3.org/2000/svg" xmlns:xlink="http://www.w3.org/1999/xlink" x="0px" y="0px"
	 viewBox="0 0 64 64" enable-background="new 0 0 64 64" xml:space="preserve">
<path fill="none" stroke="#333333" stroke-width="2.5" stroke-miterlimit="10" d="M46.8,51.6V56c0,0.4-0.8,0.6-1.3,0.6H11.6
	c-0.5,0-0.4-0.2-0.4-0.6V21.4V17v-2c0-0.4,0-0.9,0.4-0.9h3.5"/>
<path fill="none" stroke="#333333" stroke-width="2.5" stroke-miterlimit="10" d="M52.6,16.1v15.8 M52.6,31.8V49
	c0,0.4-0.2,0.5-0.6,0.5H18.2c-0.5,0-1.2-0.1-1.2-0.5V14.6v-4.4v-2c0-0.4,0.6-1,1.2-1H44l8.6,8.7v0.2"/>
</svg>
