<?xml version="1.0" encoding="utf-8"?>
<!-- Generator: Adobe Illustrator 18.1.1, SVG Export Plug-In . SVG Version: 6.00 Build 0)  -->
<svg version="1.1" id="Ebene_1" xmlns="http://www.w3.org/2000/svg" xmlns:xlink="http://www.w3.org/1999/xlink" x="0px" y="0px"
	 viewBox="0 0 64 64" enable-background="new 0 0 64 64" xml:space="preserve">
<g>
	<path fill="#414042" d="M26.7,43.1c-0.6,0.5-1.4,0.7-2.5,0.7h-2.1v3.6H20V37.4h4.3c1,0,1.8,0.3,2.4,0.8s0.9,1.3,0.9,2.4
		C27.6,41.7,27.3,42.6,26.7,43.1z M25.1,39.4c-0.3-0.2-0.6-0.3-1.1-0.3h-1.9v3H24c0.5,0,0.9-0.1,1.1-0.4c0.3-0.2,0.4-0.6,0.4-1.1
		C25.5,40,25.4,39.7,25.1,39.4z"/>
	<path fill="#414042" d="M35.2,37.6c0.7,0.2,1.3,0.7,1.7,1.3c0.4,0.5,0.6,1,0.7,1.6c0.1,0.6,0.2,1.1,0.2,1.7c0,1.3-0.3,2.5-0.8,3.4
		c-0.7,1.3-1.9,1.9-3.4,1.9h-4.3V37.4h4.3C34.2,37.4,34.8,37.4,35.2,37.6z M31.3,39.1v6.6h1.9c1,0,1.7-0.5,2.1-1.5
		c0.2-0.5,0.3-1.2,0.3-1.9c0-1-0.2-1.8-0.5-2.4c-0.3-0.5-1-0.8-1.9-0.8H31.3z"/>
	<path fill="#414042" d="M39.4,37.4h7.2v1.8h-5.1v2.3h4.5v1.8h-4.5v4.2h-2.1V37.4z"/>
</g>
<path fill="none" stroke="#414042" stroke-width="2" stroke-miterlimit="10" d="M58.1,1.8"/>
<g>
	<path fill="none" stroke="#414042" stroke-width="2" stroke-miterlimit="10" d="M6.8,23.9v31.7c0,0.4,0.4,0.8,0.8,0.8h48.8
		c0.4,0,0.8-0.4,0.8-0.8V14.1l-6.5-6.5H7.6c-0.4,0-0.8,0.4-0.8,0.8v2.4V23.9z"/>
	<path fill="none" stroke="#414042" stroke-width="2" stroke-miterlimit="10" d="M46,7.6c0.4,0,0.7,0.4,0.7,0.8v13
		c0,0.4-0.3,0.8-0.7,0.8H17.2c-0.4,0-0.7-0.4-0.7-0.8v-13c0-0.4,0.3-0.8,0.7-0.8"/>
	<path fill="none" stroke="#414042" stroke-width="2" stroke-miterlimit="10" d="M49.2,54c0.4,0,0.7-0.3,0.7-0.7V34.4
		c0-0.4-0.3-0.7-0.7-0.7H16.5c-0.4,0-0.7,0.3-0.7,0.7v18.9c0,0.4,0.3,0.7,0.7,0.7"/>
</g>
</svg>
