<?xml version="1.0" encoding="utf-8"?>
<!-- Generator: Adobe Illustrator 18.1.1, SVG Export Plug-In . SVG Version: 6.00 Build 0)  -->
<svg version="1.1" id="Ebene_1" xmlns="http://www.w3.org/2000/svg" xmlns:xlink="http://www.w3.org/1999/xlink" x="0px" y="0px"
	 viewBox="0 0 64 64" enable-background="new 0 0 64 64" xml:space="preserve">
<g>
	<g>
		<path fill="none" stroke="#333333" stroke-width="2.5" stroke-miterlimit="10" d="M51.6,31.3v24.2c0,0.7-0.5,0.9-1.2,0.9H12.3
			c-0.7,0-1.6-0.2-1.6-0.9V9.3c0-0.7,0.9-1.7,1.6-1.7h38.1c0.8,0,1.2,1,1.2,1.7v4.9"/>
		<path display="none" fill="none" stroke="#333333" stroke-width="2.5" stroke-miterlimit="10" d="M43.5,20.8h-14
			c-0.1,0-0.5,0.4-0.5,0.6v4.4c0,0.2,0.3,0.4,0.5,0.4h14v6.1c0,0.1,0.3,0,0.4-0.1l9.3-8.8c0.1-0.1,0.1-0.2,0-0.3l-9.3-8.8
			c0-0.1-0.4,0-0.4,0.1v1.1V20.8z"/>
	</g>
	<g>
		<line fill="none" stroke="#333333" stroke-width="2.5" stroke-miterlimit="10" x1="51.8" y1="23.2" x2="27.3" y2="23.2"/>
		<polyline fill="none" stroke="#333333" stroke-width="2.5" stroke-miterlimit="10" points="42.2,12.5 53,23.2 42.2,33.8 		"/>
	</g>
</g>
<g>
	<path fill="#414042" d="M25.4,47.4c-0.6,0.5-1.4,0.7-2.5,0.7h-2.1v3.6h-2.1V41.7H23c1,0,1.8,0.3,2.4,0.8s0.9,1.3,0.9,2.4
		C26.3,46.1,26,46.9,25.4,47.4z M23.8,43.8c-0.3-0.2-0.6-0.3-1.1-0.3h-1.9v3h1.9c0.5,0,0.9-0.1,1.1-0.4c0.3-0.2,0.4-0.6,0.4-1.1
		C24.2,44.4,24,44,23.8,43.8z"/>
	<path fill="#414042" d="M33.9,41.9c0.7,0.2,1.3,0.7,1.7,1.3c0.4,0.5,0.6,1,0.7,1.6c0.1,0.6,0.2,1.1,0.2,1.7c0,1.3-0.3,2.5-0.8,3.4
		c-0.7,1.3-1.9,1.9-3.4,1.9h-4.3V41.7h4.3C32.9,41.7,33.4,41.8,33.9,41.9z M30,43.4V50h1.9c1,0,1.7-0.5,2.1-1.5
		c0.2-0.5,0.3-1.2,0.3-1.9c0-1-0.2-1.8-0.5-2.4c-0.3-0.5-1-0.8-1.9-0.8H30z"/>
	<path fill="#414042" d="M38.1,41.7h7.2v1.8h-5.1v2.3h4.5v1.8h-4.5v4.2h-2.1V41.7z"/>
</g>
</svg>
