<?xml version="1.0" encoding="utf-8"?>
<!-- Generator: Adobe Illustrator 18.1.1, SVG Export Plug-In . SVG Version: 6.00 Build 0)  -->
<svg version="1.1" id="Ebene_1" xmlns="http://www.w3.org/2000/svg" xmlns:xlink="http://www.w3.org/1999/xlink" x="0px" y="0px"
	 viewBox="0 0 64 64" enable-background="new 0 0 64 64" xml:space="preserve">
<path fill="none" stroke="#414042" stroke-width="2" stroke-miterlimit="10" d="M58.1,1.8"/>
<g>
	<path fill="none" stroke="#414042" stroke-width="2" stroke-miterlimit="10" d="M6.8,23.9v31.7c0,0.4,0.4,0.8,0.8,0.8h48.8
		c0.4,0,0.8-0.4,0.8-0.8V14.1l-6.5-6.5H7.6c-0.4,0-0.8,0.4-0.8,0.8v2.4V23.9z"/>
	<path fill="none" stroke="#414042" stroke-width="2" stroke-miterlimit="10" d="M46,7.6c0.4,0,0.7,0.4,0.7,0.8v13
		c0,0.4-0.3,0.8-0.7,0.8H17.2c-0.4,0-0.7-0.4-0.7-0.8v-13c0-0.4,0.3-0.8,0.7-0.8"/>
	<path fill="none" stroke="#414042" stroke-width="2" stroke-miterlimit="10" d="M49.2,54c0.4,0,0.7-0.3,0.7-0.7V34.4
		c0-0.4-0.3-0.7-0.7-0.7H16.5c-0.4,0-0.7,0.3-0.7,0.7v18.9c0,0.4,0.3,0.7,0.7,0.7"/>
	<line fill="none" stroke="#414042" stroke-width="2" stroke-miterlimit="10" x1="20.6" y1="39.3" x2="45" y2="39.3"/>
	<line fill="none" stroke="#414042" stroke-width="2" stroke-miterlimit="10" x1="20.6" y1="45" x2="45" y2="45"/>
	<line fill="none" stroke="#414042" stroke-width="2" stroke-miterlimit="10" x1="20.6" y1="50.7" x2="45" y2="50.7"/>
</g>
</svg>
