<?xml version="1.0" encoding="utf-8"?>
<!-- Generator: Adobe Illustrator 18.1.1, SVG Export Plug-In . SVG Version: 6.00 Build 0)  -->
<svg version="1.1" id="Ebene_1" xmlns="http://www.w3.org/2000/svg" xmlns:xlink="http://www.w3.org/1999/xlink" x="0px" y="0px"
	 viewBox="0 0 64 64" enable-background="new 0 0 64 64" xml:space="preserve">
<path fill="none" stroke="#414042" stroke-width="2.5" stroke-miterlimit="10" d="M73.8,14.1"/>
<g>
	<path fill="none" stroke="#414042" stroke-width="2.5" stroke-miterlimit="10" d="M21.2,38.2c0-0.6,0.4-1,0.8-1h21.1
		c0.5,0,0.8,0.5,0.8,1l3.4,14.9c0,0.6-0.4,1-0.8,1H18.7c-0.5,0-0.8-0.5-0.8-1l1.5-6.5L21.2,38.2z"/>
	<path fill="none" stroke="#414042" stroke-width="2.5" stroke-miterlimit="10" d="M48.3,43.1h9.2c0.5,0,0.8-0.5,0.8-1V21.2
		c0-0.6-0.4-1-0.8-1h-11v-11c0-0.6-0.4-1-0.8-1H19.5c-0.5,0-0.8,0.5-0.8,1v11H6.8c-0.5,0-0.8,0.5-0.8,1v20.9c0,0.6,0.4,1,0.8,1h10"
		/>
	<line fill="none" stroke="#414042" stroke-width="2.5" stroke-miterlimit="10" x1="22.1" y1="20.1" x2="43.1" y2="20.1"/>
	<line fill="none" stroke="#414042" stroke-width="2.5" stroke-miterlimit="10" x1="22" y1="49.2" x2="33.7" y2="49.2"/>
	<line fill="none" stroke="#414042" stroke-width="2.5" stroke-miterlimit="10" x1="23.7" y1="44.2" x2="39.6" y2="44.2"/>
	<line fill="none" stroke="#414042" stroke-width="2.5" stroke-miterlimit="10" x1="48.2" y1="25.2" x2="54.9" y2="25.2"/>
</g>
</svg>
