<?xml version="1.0" encoding="utf-8"?>
<!-- Generator: Adobe Illustrator 18.1.1, SVG Export Plug-In . SVG Version: 6.00 Build 0)  -->
<svg version="1.1" id="Ebene_1" xmlns="http://www.w3.org/2000/svg" xmlns:xlink="http://www.w3.org/1999/xlink" x="0px" y="0px"
	 viewBox="0 0 64 64" enable-background="new 0 0 64 64" xml:space="preserve">
<g>
	<path fill="none" stroke="#333333" stroke-width="2.5" stroke-linecap="round" stroke-miterlimit="10" d="M11.6,34l8.5-7.8
		c0.3-0.3,0.8-0.3,1.1,0l8.4,9.2l6.2-5.5c0.3-0.3,0.8-0.3,1.1,0l14,15.6"/>
	<path fill="none" stroke="#333333" stroke-width="2.5" stroke-linecap="round" stroke-miterlimit="10" d="M49.7,24.6
		c0-2-1.7-3.8-3.8-3.8s-3.8,1.7-3.8,3.8c0,2,1.7,3.8,3.8,3.8c1.2,0,2.4-0.6,3.1-1.6C49.4,26.2,49.7,25.4,49.7,24.6z"/>
	<g>
		<path fill="none" stroke="#333333" stroke-width="2.5" stroke-miterlimit="10" d="M60.4,53.2H3.6c-0.5,0-0.9-0.4-0.9-0.9V12.1
			c0-0.5,0.4-0.9,0.9-0.9h56.7c0.5,0,0.9,0.4,0.9,0.9v40.2C61.2,52.7,60.8,53.2,60.4,53.2z"/>
	</g>
</g>
</svg>
