<?xml version="1.0" encoding="utf-8"?>
<!-- Generator: Adobe Illustrator 18.1.1, SVG Export Plug-In . SVG Version: 6.00 Build 0)  -->
<svg version="1.1" id="Ebene_1" xmlns="http://www.w3.org/2000/svg" xmlns:xlink="http://www.w3.org/1999/xlink" x="0px" y="0px"
	 viewBox="0 0 64 64" enable-background="new 0 0 64 64" xml:space="preserve">
<path fill="none" stroke="#414042" stroke-width="2.5" stroke-miterlimit="10" d="M74.4-2"/>
<path fill="none" stroke="#414042" stroke-width="2.5" stroke-miterlimit="10" d="M30,37.5l8.2,8l7.8,0v-7l-14-14.8l2.9-3.6L32.9,18
	l-3.6,3.4l-1.6-1.7c0.7-3-0.1-6.2-2.4-8.5c-3.6-3.6-9.5-3.5-13.2,0.2c-3.7,3.7-3.8,9.7-0.2,13.3c2.3,2.3,5.4,3.1,8.4,2.4l1.7,1.6
	l-3.4,3.4l2.2,2.1l9.2-8.8"/>
<path fill="none" stroke="#414042" stroke-width="2.5" stroke-miterlimit="10" d="M50,53.4c0,1.6-1.2,2.8-2.8,2.8
	c-1.5,0-2.8-1.3-2.8-2.8c0-1.6,2.8-4.5,2.8-4.5S50,51.8,50,53.4z"/>
</svg>
