<?xml version="1.0" encoding="utf-8"?>
<!-- Generator: Adobe Illustrator 18.1.1, SVG Export Plug-In . SVG Version: 6.00 Build 0)  -->
<svg version="1.1" id="Ebene_1" xmlns="http://www.w3.org/2000/svg" xmlns:xlink="http://www.w3.org/1999/xlink" x="0px" y="0px"
	 viewBox="0 0 64 64" enable-background="new 0 0 64 64" xml:space="preserve">
<g>
	<path fill="#333333" d="M14.9,8.6h20.5c5.6,0,9.5,1.7,11.9,5c1.4,2,2.1,4.2,2.1,6.8c0,3-0.8,5.4-2.5,7.3c-0.9,1-2.1,1.9-3.8,2.8
		c2.4,0.9,4.2,2,5.4,3.1c2.1,2.1,3.2,4.9,3.2,8.5c0,3.1-1,5.8-2.9,8.3c-2.9,3.7-7.4,5.5-13.7,5.5H14.9V8.6z M32.9,28.6
		c2.7,0,4.9-0.4,6.4-1.1c2.4-1.2,3.6-3.3,3.6-6.4c0-3.1-1.3-5.2-3.8-6.3c-1.4-0.6-3.6-0.9-6.4-0.9H21.1v14.7H32.9z M35.1,50.4
		c4,0,6.8-1.1,8.5-3.4c1.1-1.4,1.6-3.2,1.6-5.2c0-3.4-1.6-5.8-4.7-7c-1.6-0.7-3.8-1-6.5-1H21.1v16.7H35.1z"/>
</g>
</svg>
